<?xml version="1.0" encoding="UTF-8" standalone="no"?>
<!-- Generator: Adobe Illustrator 16.0.0, SVG Export Plug-In . SVG Version: 6.00 Build 0)  -->

<svg
   xmlns:dc="http://purl.org/dc/elements/1.1/"
   xmlns:cc="http://creativecommons.org/ns#"
   xmlns:rdf="http://www.w3.org/1999/02/22-rdf-syntax-ns#"
   xmlns:svg="http://www.w3.org/2000/svg"
   xmlns="http://www.w3.org/2000/svg"
   xmlns:sodipodi="http://sodipodi.sourceforge.net/DTD/sodipodi-0.dtd"
   xmlns:inkscape="http://www.inkscape.org/namespaces/inkscape"
   version="1.1"
   id="Layer_1"
   x="0px"
   y="0px"
   width="300"
   height="300"
   viewBox="0 0 300 300"
   enable-background="new 0 0 416 286"
   xml:space="preserve"
   inkscape:version="0.91 r13725"
   sodipodi:docname="logo.svg"
   inkscape:export-filename="./logo_bw-60px.png"
   inkscape:export-xdpi="18"
   inkscape:export-ydpi="18"><metadata
     id="metadata4443"><rdf:RDF><cc:Work
         rdf:about=""><dc:format>image/svg+xml</dc:format><dc:type
           rdf:resource="http://purl.org/dc/dcmitype/StillImage" /><dc:title></dc:title></cc:Work></rdf:RDF></metadata><defs
     id="defs4441" /><sodipodi:namedview
     pagecolor="#ffffff"
     bordercolor="#666666"
     borderopacity="1"
     objecttolerance="10"
     gridtolerance="10"
     guidetolerance="10"
     inkscape:pageopacity="0"
     inkscape:pageshadow="2"
     inkscape:window-width="1368"
     inkscape:window-height="849"
     id="namedview4439"
     showgrid="false"
     inkscape:zoom="0.93990385"
     inkscape:cx="196.93085"
     inkscape:cy="117.72498"
     inkscape:window-x="-8"
     inkscape:window-y="-8"
     inkscape:window-maximized="1"
     inkscape:current-layer="Layer_1" /><path
     style="fill:#ffffff;fill-opacity:1;stroke:none;stroke-width:8;stroke-miterlimit:4;stroke-dasharray:none"
     d="M 66.685354,52.348716 9.3605452,151.6577 l 28.6644368,49.65449 28.660372,49.6545 57.327526,0 28.66172,-49.6545 57.32481,-99.30899 28.66171,49.65314 -57.32616,99.31035 57.32753,0 28.66172,-49.6545 28.66172,-49.65449 -28.66172,-49.6545 -28.66172,-49.654484 -57.32753,0 -85.986532,148.963474 -28.661717,-49.65313 57.326169,-99.310344 -57.327526,0 z"
     id="polygon4141"
     inkscape:connector-curvature="0" /><rect
     style="fill:none"
     x="0"
     id="rect4197"
     height="416"
     width="416"
     y="-51" /><g
     display="none"
     id="g4199"
     style="display:none"
     transform="translate(0,14)"><g
       display="inline"
       id="g4201"
       style="display:inline"><polygon
         points="166.721,286 84.157,143 42.878,214.5 84.157,286 "
         id="polygon4203"
         style="fill:#303f9f" /><polygon
         points="373.121,71.5 331.842,0 249.278,0 331.842,143 "
         id="polygon4205"
         style="fill:#3f51b5" /><polygon
         points="414.4,143 373.121,71.5 249.278,286 331.842,286 "
         id="polygon4207"
         style="fill:#7986cb" /><polygon
         points="166.721,0 84.157,0 1.596,143 42.878,214.5 "
         id="polygon4209"
         style="fill:#536dfe" /><polygon
         points="249.278,0 290.561,71.5 331.842,0 "
         id="polygon4211"
         style="fill-opacity:0.5" /><polygon
         points="84.157,286 125.438,214.5 166.721,286 "
         id="polygon4213"
         style="fill-opacity:0.5" /><polygon
         points="84.157,0 125.438,71.5 166.721,0 "
         id="polygon4215"
         style="fill:#ffffff;fill-opacity:0.2" /><polygon
         points="42.878,71.5 84.157,0 125.438,71.5 "
         id="polygon4217"
         style="fill:#ffffff;fill-opacity:0.1" /><polygon
         points="42.878,71.5 84.157,143 125.438,71.5 "
         id="polygon4219"
         style="fill:#ffffff;fill-opacity:0" /><polygon
         points="1.598,143 42.878,71.5 84.157,143 "
         id="polygon4221"
         style="fill-opacity:0.1" /><polygon
         points="1.598,143 42.878,214.5 84.157,143 "
         id="polygon4223"
         style="fill-opacity:0.2" /><polygon
         points="125.438,214.5 84.157,143 42.878,214.5 "
         id="polygon4225"
         style="fill:#ffffff;fill-opacity:0" /><polygon
         points="373.121,71.5 331.842,143 290.561,71.5 "
         id="polygon4227"
         style="fill:#ffffff;fill-opacity:0" /><g
         id="g4229"><polygon
           points="331.842,143 373.121,71.5 414.4,143 "
           id="polygon4231"
           style="fill:#ffffff;fill-opacity:0.2" /><polygon
           points="331.842,143 373.121,214.5 414.4,143 "
           id="polygon4233"
           style="fill:#ffffff;fill-opacity:0.1" /><polygon
           points="290.561,214.5 331.842,143 373.121,214.5 "
           id="polygon4235"
           style="fill:#ffffff;fill-opacity:0" /><polygon
           points="290.561,214.5 331.842,286 373.121,214.5 "
           id="polygon4237"
           style="fill-opacity:0.1" /><polygon
           points="249.278,286 290.561,214.5 331.842,286 "
           id="polygon4239"
           style="fill-opacity:0.2" /></g><polygon
         points="125.438,214.5 84.157,286 42.878,214.5 "
         id="polygon4241"
         style="fill-opacity:0.2" /><polygon
         points="373.121,71.5 331.842,0 290.561,71.5 "
         id="polygon4243"
         style="fill-opacity:0.2" /></g><rect
       y="-65"
       display="inline"
       width="416"
       height="416"
       id="rect4245"
       x="0"
       style="display:inline;fill:none" /></g><g
     display="none"
     id="g4247"
     style="display:none"
     transform="translate(0,14)"><g
       display="inline"
       id="g4249"
       style="display:inline"><polygon
         points="331.843,0 249.279,0 84.157,286 166.721,286 "
         id="polygon4251"
         style="fill:#ff4081" /><polygon
         points="249.279,0 290.558,71.5 331.843,0 "
         id="polygon4253"
         style="fill:#ffffff;fill-opacity:0.2" /><polygon
         points="208,71.5 249.279,0 290.558,71.5 "
         id="polygon4255"
         style="fill:#ffffff;fill-opacity:0.1" /><polygon
         points="208,71.5 249.279,143 290.558,71.5 "
         id="polygon4257"
         style="fill:#ffffff;fill-opacity:0" /><polygon
         points="166.721,143 208,214.5 249.279,143 "
         id="polygon4259"
         style="fill-opacity:0.2" /><polygon
         points="125.439,214.5 166.721,143 208,214.5 "
         id="polygon4261"
         style="fill-opacity:0.3" /><polygon
         points="125.439,214.5 166.721,286 208,214.5 "
         id="polygon4263"
         style="fill-opacity:0.4" /><polygon
         points="84.157,286 125.439,214.5 166.721,286 "
         id="polygon4265"
         style="fill-opacity:0.5" /><polygon
         points="166.721,143 208,71.5 249.279,143 "
         id="polygon4267"
         style="fill-opacity:0.1" /></g><g
       display="inline"
       id="g4269"
       style="display:inline"><polygon
         points="373.121,71.5 331.84,0 166.718,286 249.279,286 "
         id="polygon4271"
         style="fill:#ff4081" /><polygon
         points="290.558,71.5 331.84,0 373.121,71.5 "
         id="polygon4273"
         style="fill:#ffffff;fill-opacity:0.1" /><polygon
         points="290.558,71.5 331.84,143 373.121,71.5 "
         id="polygon4275"
         style="fill:#ffffff;fill-opacity:0" /><polygon
         points="249.279,143 290.558,214.5 331.84,143 "
         id="polygon4277"
         style="fill-opacity:0.2" /><polygon
         points="208,214.5 249.279,143 290.558,214.5 "
         id="polygon4279"
         style="fill-opacity:0.3" /><polygon
         points="208,214.5 249.279,286 290.558,214.5 "
         id="polygon4281"
         style="fill-opacity:0.4" /><polygon
         points="166.718,286 208,214.5 249.279,286 "
         id="polygon4283"
         style="fill-opacity:0.5" /><polygon
         points="249.279,143 290.558,71.5 331.84,143 "
         id="polygon4285"
         style="fill-opacity:0.1" /></g><g
       display="inline"
       id="g4287"
       style="display:inline"><polygon
         points="249.279,0 166.718,0 42.878,214.5 84.16,286 "
         id="polygon4289"
         style="fill:#ff4081" /><polygon
         points="166.718,0 208,71.5 249.279,0 "
         id="polygon4291"
         style="fill:#ffffff;fill-opacity:0.2" /><polygon
         points="125.439,71.5 166.718,0 208,71.5 "
         id="polygon4293"
         style="fill:#ffffff;fill-opacity:0.1" /><polygon
         points="125.439,71.5 166.718,143 208,71.5 "
         id="polygon4295"
         style="fill:#ffffff;fill-opacity:0" /><polygon
         points="84.16,143 125.439,214.5 166.718,143 "
         id="polygon4297"
         style="fill-opacity:0.2" /><polygon
         points="42.878,214.5 84.16,143 125.439,214.5 "
         id="polygon4299"
         style="fill-opacity:0.3" /><polygon
         points="42.878,214.5 84.16,286 125.439,214.5 "
         id="polygon4301"
         style="fill-opacity:0.4" /><polygon
         points="84.16,143 125.439,71.5 166.718,143 "
         id="polygon4303"
         style="fill-opacity:0.1" /></g><rect
       y="-65"
       display="inline"
       width="416"
       height="416"
       id="rect4305"
       x="0"
       style="display:inline;fill:none" /><g
       display="inline"
       id="g4307"
       style="display:inline"><polygon
         points="166.721,286 84.157,143 42.878,214.5 84.157,286 "
         id="polygon4309"
         style="fill:#303f9f" /><polygon
         points="373.121,71.5 331.843,0 249.279,0 331.843,143 "
         id="polygon4311"
         style="fill:#3f51b5" /><polygon
         points="414.4,143 373.121,71.5 249.279,286 331.843,286 "
         id="polygon4313"
         style="fill:#7986cb" /><polygon
         points="166.721,0 84.157,0 1.597,143 42.878,214.5 "
         id="polygon4315"
         style="fill:#536dfe" /><polygon
         points="249.279,0 290.558,71.5 331.843,0 "
         id="polygon4317"
         style="fill-opacity:0.5" /><polygon
         points="84.157,286 125.439,214.5 166.721,286 "
         id="polygon4319"
         style="fill-opacity:0.5" /><polygon
         points="84.157,0 125.439,71.5 166.721,0 "
         id="polygon4321"
         style="fill:#ffffff;fill-opacity:0.2" /><polygon
         points="42.878,71.5 84.157,0 125.439,71.5 "
         id="polygon4323"
         style="fill:#ffffff;fill-opacity:0.1" /><polygon
         points="42.878,71.5 84.157,143 125.439,71.5 "
         id="polygon4325"
         style="fill:#ffffff;fill-opacity:0" /><polygon
         points="1.6,143 42.878,71.5 84.157,143 "
         id="polygon4327"
         style="fill-opacity:0.1" /><polygon
         points="1.6,143 42.878,214.5 84.157,143 "
         id="polygon4329"
         style="fill-opacity:0.2" /><polygon
         points="125.439,214.5 84.157,143 42.878,214.5 "
         id="polygon4331"
         style="fill:#ffffff;fill-opacity:0" /><polygon
         points="373.121,71.5 331.843,143 290.558,71.5 "
         id="polygon4333"
         style="fill:#ffffff;fill-opacity:0" /><g
         id="g4335"><polygon
           points="331.843,143 373.121,71.5 414.4,143 "
           id="polygon4337"
           style="fill:#ffffff;fill-opacity:0.2" /><polygon
           points="331.843,143 373.121,214.5 414.4,143 "
           id="polygon4339"
           style="fill:#ffffff;fill-opacity:0.1" /><polygon
           points="290.558,214.5 331.843,143 373.121,214.5 "
           id="polygon4341"
           style="fill:#ffffff;fill-opacity:0" /><polygon
           points="290.558,214.5 331.843,286 373.121,214.5 "
           id="polygon4343"
           style="fill-opacity:0.1" /><polygon
           points="249.279,286 290.558,214.5 331.843,286 "
           id="polygon4345"
           style="fill-opacity:0.2" /></g><polygon
         points="125.439,214.5 84.157,286 42.878,214.5 "
         id="polygon4347"
         style="fill-opacity:0.2" /><polygon
         points="373.121,71.5 331.843,0 290.558,71.5 "
         id="polygon4349"
         style="fill-opacity:0.2" /></g></g><g
     display="none"
     id="g4351"
     style="display:none"
     transform="translate(0,14)"><g
       display="inline"
       id="g4353"
       style="display:inline"><polygon
         points="331.843,0 249.279,0 84.157,286 166.721,286 "
         id="polygon4355"
         style="fill:#9f499b" /><polygon
         points="249.279,0 290.558,71.5 331.843,0 "
         id="polygon4357"
         style="fill:#ffffff;fill-opacity:0.2" /><polygon
         points="208,71.5 249.279,0 290.558,71.5 "
         id="polygon4359"
         style="fill:#ffffff;fill-opacity:0.1" /><polygon
         points="208,71.5 249.279,143 290.558,71.5 "
         id="polygon4361"
         style="fill:#ffffff;fill-opacity:0" /><polygon
         points="166.721,143 208,214.5 249.279,143 "
         id="polygon4363"
         style="fill-opacity:0.2" /><polygon
         points="125.439,214.5 166.721,143 208,214.5 "
         id="polygon4365"
         style="fill-opacity:0.3" /><polygon
         points="125.439,214.5 166.721,286 208,214.5 "
         id="polygon4367"
         style="fill-opacity:0.4" /><polygon
         points="84.157,286 125.439,214.5 166.721,286 "
         id="polygon4369"
         style="fill-opacity:0.5" /><polygon
         points="166.721,143 208,71.5 249.279,143 "
         id="polygon4371"
         style="fill-opacity:0.1" /></g><g
       display="inline"
       id="g4373"
       style="display:inline"><polygon
         points="373.121,71.5 331.84,0 166.718,286 249.279,286 "
         id="polygon4375"
         style="fill:#9f499b" /><polygon
         points="290.558,71.5 331.84,0 373.121,71.5 "
         id="polygon4377"
         style="fill:#ffffff;fill-opacity:0.1" /><polygon
         points="290.558,71.5 331.84,143 373.121,71.5 "
         id="polygon4379"
         style="fill:#ffffff;fill-opacity:0" /><polygon
         points="249.279,143 290.558,214.5 331.84,143 "
         id="polygon4381"
         style="fill-opacity:0.2" /><polygon
         points="208,214.5 249.279,143 290.558,214.5 "
         id="polygon4383"
         style="fill-opacity:0.3" /><polygon
         points="208,214.5 249.279,286 290.558,214.5 "
         id="polygon4385"
         style="fill-opacity:0.4" /><polygon
         points="166.718,286 208,214.5 249.279,286 "
         id="polygon4387"
         style="fill-opacity:0.5" /><polygon
         points="249.279,143 290.558,71.5 331.84,143 "
         id="polygon4389"
         style="fill-opacity:0.1" /></g><g
       display="inline"
       id="g4391"
       style="display:inline"><polygon
         points="414.4,143 373.121,71.5 249.279,286 331.843,286 "
         id="polygon4393"
         style="fill:#9f499b" /><polygon
         points="331.843,143 373.121,214.5 414.4,143 "
         id="polygon4395"
         style="fill-opacity:0.2" /><polygon
         points="290.558,214.5 331.843,143 373.121,214.5 "
         id="polygon4397"
         style="fill-opacity:0.3" /><polygon
         points="290.558,214.5 331.843,286 373.121,214.5 "
         id="polygon4399"
         style="fill-opacity:0.4" /><polygon
         points="249.279,286 290.558,214.5 331.843,286 "
         id="polygon4401"
         style="fill-opacity:0.5" /><polygon
         points="331.843,143 373.121,71.5 414.4,143 "
         id="polygon4403"
         style="fill-opacity:0.1" /></g><g
       display="inline"
       id="g4405"
       style="display:inline"><polygon
         points="249.279,0 166.718,0 42.878,214.5 84.16,286 "
         id="polygon4407"
         style="fill:#9f499b" /><polygon
         points="166.718,0 208,71.5 249.279,0 "
         id="polygon4409"
         style="fill:#ffffff;fill-opacity:0.2" /><polygon
         points="125.439,71.5 166.718,0 208,71.5 "
         id="polygon4411"
         style="fill:#ffffff;fill-opacity:0.1" /><polygon
         points="125.439,71.5 166.718,143 208,71.5 "
         id="polygon4413"
         style="fill:#ffffff;fill-opacity:0" /><polygon
         points="84.16,143 125.439,214.5 166.718,143 "
         id="polygon4415"
         style="fill-opacity:0.2" /><polygon
         points="42.878,214.5 84.16,143 125.439,214.5 "
         id="polygon4417"
         style="fill-opacity:0.3" /><polygon
         points="42.878,214.5 84.16,286 125.439,214.5 "
         id="polygon4419"
         style="fill-opacity:0.4" /><polygon
         points="84.16,143 125.439,71.5 166.718,143 "
         id="polygon4421"
         style="fill-opacity:0.1" /></g><g
       display="inline"
       id="g4423"
       style="display:inline"><polygon
         points="166.721,0 84.157,0 1.6,143 42.878,214.5 "
         id="polygon4425"
         style="fill:#9f499b" /><polygon
         points="84.157,0 125.439,71.5 166.721,0 "
         id="polygon4427"
         style="fill:#ffffff;fill-opacity:0.2" /><polygon
         points="42.878,71.5 84.157,0 125.439,71.5 "
         id="polygon4429"
         style="fill:#ffffff;fill-opacity:0.1" /><polygon
         points="42.878,71.5 84.157,143 125.439,71.5 "
         id="polygon4431"
         style="fill:#ffffff;fill-opacity:0" /><polygon
         points="1.6,143 42.878,214.5 84.157,143 "
         id="polygon4433"
         style="fill-opacity:0.2" /><polygon
         points="1.6,143 42.878,71.5 84.157,143 "
         id="polygon4435"
         style="fill-opacity:0.1" /></g><rect
       y="-65"
       display="inline"
       width="416"
       height="416"
       id="rect4437"
       x="0"
       style="display:inline;fill:none" /></g><path
     style="fill:#ff4081;fill-opacity:1;stroke:none;stroke-width:8;stroke-miterlimit:4;stroke-dasharray:none"
     d="m 120.42644,276.38461 c -5.7742,-2.7079 -5.56268,-38.93129 -5.56268,-94.36559 0,-43.06333 0.19181,-50.78485 1.37059,-55.17368 1.47611,-5.4959 3.54739,-9.14161 7.29065,-12.83245 5.22074,-5.14762 5.34516,-5.62842 5.58346,-21.576609 0.22224,-14.872162 1.49568,-24.084689 4.52443,-32.731406 2.1677,-6.188512 2.30907,-7.974746 0.80778,-10.207411 -1.73324,-2.577661 -1.76863,-6.060924 -0.0869,-8.540982 1.87188,-2.760267 1.62679,-3.941809 -1.29436,-6.239966 -4.01819,-3.161234 -2.93039,-6.110259 2.71304,-7.35498 3.87953,-0.855674 24.60454,-0.813814 28.68615,0.05791 5.4819,1.170828 6.44541,4.108893 2.39299,7.297047 -3.07675,2.420559 -3.14077,2.900815 -0.84712,6.356079 1.88625,2.841562 1.74253,4.902175 -0.62117,8.90613 -1.23646,2.094532 -1.20025,2.707 0.47314,7.996275 3.72374,11.77011 4.67637,18.064071 4.95176,32.715432 0.14818,7.879662 0.49918,15.273901 0.78019,16.431631 0.281,1.15776 2.46039,4.15637 4.84311,6.66358 2.38272,2.50722 5.19856,6.50766 6.25743,8.88989 1.91648,4.3117 1.92629,4.5686 2.1669,56.78204 0.26696,57.92607 0.4511,94.19734 -5.17176,96.83378 -2.71389,1.2725 -4.31268,1.34481 -29.72856,1.34481 -24.75492,0 -27.06964,-0.0982 -29.52919,-1.25155 z"
     id="path4548"
     inkscape:connector-curvature="0"
     sodipodi:nodetypes="cssssssssssssssssssssscc" /><path
     inkscape:connector-curvature="0"
     id="path5115"
     d="m 373.09968,52.348716 -57.32481,99.308984 28.66443,49.65449 28.66038,49.6545 57.32752,0 28.66172,-49.6545 57.32481,-99.30899 28.66171,49.65314 -57.32616,99.31035 57.32753,0 28.66172,-49.6545 28.66172,-49.65449 -28.66172,-49.6545 -28.66172,-49.654484 -57.32753,0 -85.98653,148.963474 -28.66172,-49.65313 57.32617,-99.310344 -57.32752,0 z"
     style="fill:#758afe;fill-opacity:1;stroke:#2c2ca0;stroke-width:8;stroke-miterlimit:4;stroke-dasharray:none" /><path
     sodipodi:nodetypes="cssssssssssssssssssssscc"
     inkscape:connector-curvature="0"
     id="path5117"
     d="m 426.84076,276.38461 c -5.7742,-2.7079 -5.56268,-38.93129 -5.56268,-94.36559 0,-43.06333 0.19181,-50.78485 1.37059,-55.17368 1.47611,-5.4959 3.54739,-9.14161 7.29065,-12.83245 5.22074,-5.14762 5.34516,-5.62842 5.58346,-21.576609 0.22224,-14.872162 1.49568,-24.084689 4.52443,-32.731406 2.1677,-6.188512 2.30907,-7.974746 0.80778,-10.207411 -1.73324,-2.577661 -1.76863,-6.060924 -0.0869,-8.540982 1.87188,-2.760267 1.62679,-3.941809 -1.29436,-6.239966 -4.01819,-3.161234 -2.93039,-6.110259 2.71304,-7.35498 3.87953,-0.855674 24.60454,-0.813814 28.68615,0.05791 5.4819,1.170828 6.44541,4.108893 2.39299,7.297047 -3.07675,2.420559 -3.14077,2.900815 -0.84712,6.356079 1.88625,2.841562 1.74253,4.902175 -0.62117,8.90613 -1.23646,2.094532 -1.20025,2.707 0.47314,7.996275 3.72374,11.77011 4.67637,18.064071 4.95176,32.715432 0.14818,7.879662 0.49918,15.273901 0.78019,16.431631 0.281,1.15776 2.46039,4.15637 4.84311,6.66358 2.38272,2.50722 5.19856,6.50766 6.25743,8.88989 1.91648,4.3117 1.92629,4.5686 2.1669,56.78204 0.26696,57.92607 0.4511,94.19734 -5.17176,96.83378 -2.71389,1.2725 -4.31268,1.34481 -29.72856,1.34481 -24.75492,0 -27.06964,-0.0982 -29.52919,-1.25155 z"
     style="fill:#ff4081;fill-opacity:1;stroke:#800033;stroke-width:8;stroke-miterlimit:4;stroke-dasharray:none" /></svg>